HIERARCHY
ROOT Hips
{
    OFFSET 0.000000 0.000000 0.000000
    CHANNELS 6 Xposition Yposition Zposition Zrotation Xrotation Yrotation
    JOINT Spine
    {
        OFFSET -0.000000 0.050574 0.000000
        CHANNELS 3 Zrotation Xrotation Yrotation
        JOINT Spine1
        {
            OFFSET 0.000000 0.175826 0.000000
            CHANNELS 3 Zrotation Xrotation Yrotation
            JOINT Neck
            {
                OFFSET -0.000000 0.236303 -0.000000
                CHANNELS 3 Zrotation Xrotation Yrotation
                JOINT Head
                {
                    OFFSET -0.000000 0.156667 0.017213
                    CHANNELS 3 Zrotation Xrotation Yrotation
                    End Site
                    {
                        OFFSET 0.000000 0.172131 0.000000
                    }
                }
            }
            JOINT LeftShoulder
            {
                OFFSET 0.034424 0.164350 -0.002298
                CHANNELS 3 Zrotation Xrotation Yrotation
                JOINT LeftArm
                {
                    OFFSET 0.124521 0.000000 0.000000
                    CHANNELS 3 Zrotation Xrotation Yrotation
                    JOINT LeftForeArm
                    {
                        OFFSET 0.262599 -0.000000 0.000000
                        CHANNELS 3 Zrotation Xrotation Yrotation
                        JOINT LeftHand
                        {
                            OFFSET 0.170315 0.000000 -0.000000
                            CHANNELS 3 Zrotation Xrotation Yrotation
                            End Site
                            {
                                OFFSET 0.129099 0.000000 0.000000
                            }
                        }
                    }
                }
            }
            JOINT RightShoulder
            {
                OFFSET -0.034424 0.164350 -0.002298
                CHANNELS 3 Zrotation Xrotation Yrotation
                JOINT RightArm
                {
                    OFFSET -0.124521 -0.000000 -0.000000
                    CHANNELS 3 Zrotation Xrotation Yrotation
                    JOINT RightForeArm
                    {
                        OFFSET -0.262599 -0.000000 -0.000000
                        CHANNELS 3 Zrotation Xrotation Yrotation
                        JOINT RightHand
                        {
                            OFFSET -0.170315 -0.000000 0.000000
                            CHANNELS 3 Zrotation Xrotation Yrotation
                            End Site
                            {
                                OFFSET -0.129099 0.000000 0.000000
                            }
                        }
                    }
                }
            }
        }
    }
    JOINT LeftUpLeg
    {
        OFFSET 0.086066 -0.000000 -0.000000
        CHANNELS 3 Zrotation Xrotation Yrotation
        JOINT LeftLeg
        {
            OFFSET 0.000000 -0.390910 0.000000
            CHANNELS 3 Zrotation Xrotation Yrotation
            JOINT LeftFoot
            {
                OFFSET 0.000000 -0.377593 -0.000000
                CHANNELS 3 Zrotation Xrotation Yrotation
                JOINT LeftToeBase
                {
                    OFFSET 0.000000 -0.055943 0.129099
                    CHANNELS 3 Zrotation Xrotation Yrotation
                    End Site
                    {
                        OFFSET 0.000000 0.000000 0.034426
                    }
                }
            }
        }
    }
    JOINT RightUpLeg
    {
        OFFSET -0.086066 0.000000 0.000000
        CHANNELS 3 Zrotation Xrotation Yrotation
        JOINT RightLeg
        {
            OFFSET 0.000000 -0.390910 -0.000000
            CHANNELS 3 Zrotation Xrotation Yrotation
            JOINT RightFoot
            {
                OFFSET -0.000000 -0.377593 -0.000000
                CHANNELS 3 Zrotation Xrotation Yrotation
                JOINT RightToeBase
                {
                    OFFSET 0.000000 -0.055943 0.129099
                    CHANNELS 3 Zrotation Xrotation Yrotation
                    End Site
                    {
                        OFFSET 0.000000 0.000000 0.034426
                    }
                }
            }
        }
    }
}
MOTION
Frames:    12
Frame Time:    0.008333
-0.132292    1.685077    -1.409626    -1.541941    3.301082    173.620926    0.114429    -14.066902    0.470785    1.954857    -4.659570    0.614274    6.347741    28.123638    5.343198    4.793446    10.226166    8.393967    35.645535    3.654071    -8.240425    47.944675    -2.171635    -12.065562    8.553668    8.924503    -44.114193    85.865288    -18.774214    -16.559349    -32.155109    4.527441    7.879991    -46.075241    -0.143301    8.200653    -4.164924    7.415579    29.432133    -85.856819    -14.174192    9.031941    -4.735960    0.978767    -3.873860    0.000000    13.074712    0.000001    -0.763386    9.341783    -0.579718    0.000000    0.737317    -0.000000    -1.668010    -2.299381    3.033213    0.000000    7.179784    0.000000    -0.445276    9.793767    0.761692    0.000000    0.902245    -0.000000    
-0.109714    1.679431    -1.499675    -3.077717    -0.358514    175.451035    0.175803    -10.561957    0.959020    3.507119    1.102524    0.876813    6.655853    10.114213    4.957735    5.328870    1.572024    6.054514    34.192024    0.953904    -18.796701    42.357277    -4.261217    -15.153969    1.859313    2.454118    -37.166782    63.520187    -14.326157    -6.234734    -29.338345    -2.492488    20.646416    -48.001495    -12.416543    15.179667    -1.889197    1.943855    44.198944    -71.194016    -10.369795    2.763047    -5.227220    2.956960    -3.231206    0.000000    15.336206    -0.000000    -1.101327    12.395533    0.906962    0.000000    1.034610    0.000001    -1.781529    0.110750    3.473989    -0.000000    9.097475    0.000000    -0.382445    12.753139    1.378039    -0.000000    1.137686    -0.000000    
-0.104959    1.678949    -1.520530    -3.904017    -1.111477    176.331223    0.173017    -10.346581    0.963246    3.646710    5.324481    0.606613    3.110963    -12.776114    1.419048    3.167088    -12.071754    1.395472    34.465054    -2.294669    -21.544956    41.561806    -6.750278    -12.365858    -2.473496    -4.244946    -30.267220    43.700851    -18.177048    0.649412    -26.807966    -10.259425    26.295763    -50.551701    -21.734827    11.475149    3.310523    -3.240927    45.655693    -51.007710    -12.228426    -4.145514    -5.824842    4.124352    -2.439524    0.000000    14.217239    0.000000    -1.737569    15.110687    2.581042    0.000000    1.425077    -0.000000    -2.455341    1.677100    3.515631    0.000000    7.732625    -0.000000    -0.235236    14.876516    1.490166    -0.000000    1.370324    0.000000    
-0.108145    1.678600    -1.514664    -4.468996    -1.189828    176.864578    0.192744    -10.292909    1.078584    2.959684    10.382989    0.511455    0.404608    -23.926306    -0.759780    2.086308    -19.368385    -0.261971    35.329212    -3.869437    -18.790529    44.166126    -8.015308    -8.730588    -2.938715    -5.575432    -27.851074    22.412621    -22.690588    -4.484413    -26.088789    -13.473430    25.761213    -53.372437    -25.787901    7.229414    3.221386    -3.087643    46.258434    -29.004053    -14.334945    -1.687789    -6.567091    4.350270    -2.324593    -0.000000    12.216753    0.000000    -2.506981    17.280678    3.793315    0.000000    1.807889    0.000000    -3.225866    2.273986    3.422718    0.000000    5.261510    -0.000000    -0.045739    16.692919    1.439441    -0.000000    1.537481    0.000000    
-0.111885    1.679784    -1.507680    -4.940982    -1.105367    176.759705    0.186629    -10.088164    1.065339    2.000596    14.653769    0.509157    1.379376    -27.681992    0.427625    3.475526    -22.236256    1.093411    36.027172    -4.133246    -14.202421    47.741245    -8.846823    -5.798606    -2.178010    -4.200803    -27.437885    5.761302    -22.118679    -11.596758    -26.530369    -14.782680    22.521996    -56.313564    -28.267902    3.595608    0.141739    -0.136781    46.019299    -14.824224    -11.248037    -0.032121    -7.255734    4.224971    -2.915645    -0.000000    11.109428    0.000000    -3.311491    18.978655    5.008734    -0.000000    2.119997    -0.000000    -3.967776    2.406725    3.405435    0.000000    3.600882    0.000000    0.132594    18.568190    1.482648    -0.000000    1.620571    0.000000    
-0.114098    1.681618    -1.504557    -5.320618    -0.953281    176.331085    0.135633    -9.789414    0.797665    1.127618    17.237085    0.416744    3.333829    -29.325043    2.031932    5.073941    -23.498690    2.446675    35.880169    -3.603487    -9.999038    50.518131    -10.117682    -4.429276    -1.563360    -2.998534    -27.552998    -3.346930    -20.124378    -14.256714    -26.724749    -15.129576    19.566315    -57.943726    -31.526859    1.957613    -2.983160    2.879564    46.050499    -8.963341    -7.585911    -2.374726    -7.859270    4.040869    -3.670197    -0.000000    10.891913    0.000001    -4.163632    20.158369    6.605718    0.000000    2.354747    -0.000000    -4.562421    2.316398    3.412008    -0.000000    3.081563    0.000000    0.443761    20.139175    1.538062    0.000000    1.601788    -0.000000    
-0.115215    1.683272    -1.504086    -5.605049    -0.781351    175.894470    0.053225    -9.429069    0.324885    0.570229    18.111481    0.127363    4.693141    -30.332455    2.710287    5.822242    -24.074150    2.738131    34.991184    -2.731472    -6.772039    52.133621    -12.176052    -4.680937    -1.437388    -2.718658    -27.879730    -6.689861    -19.275696    -13.554619    -26.478138    -14.919771    17.534702    -57.808147    -36.084034    2.724253    -5.343594    5.039301    46.798656    -8.349137    -5.228811    -5.707519    -8.445004    3.993814    -4.513608    -0.000000    11.049298    0.000000    -5.018588    20.846004    8.078303    0.000000    2.555959    -0.000000    -4.923223    2.095601    3.446672    0.000000    3.340339    -0.000000    0.817984    21.298069    1.725967    0.000000    1.469719    -0.000000    
-0.115929    1.684860    -1.504825    -5.811613    -0.647000    175.691406    -0.032864    -8.992495    -0.210250    0.374343    17.745842    -0.311885    5.453554    -30.648033    2.826323    5.969396    -24.001259    2.478066    33.799591    -1.667044    -4.211236    52.784477    -14.758098    -6.073766    -1.742470    -3.255107    -28.180313    -6.727999    -19.573112    -11.510752    -26.137934    -14.340314    15.855906    -56.058231    -41.261330    5.499192    -6.812713    6.228988    47.753830    -10.248744    -4.118410    -8.005414    -8.825373    4.087758    -5.283685    -0.000000    11.088241    -0.000002    -5.829019    21.103067    9.463425    0.000000    2.738412    -0.000000    -5.183689    1.866360    3.360218    0.000000    3.904106    -0.000000    1.191116    22.029240    1.964280    -0.000000    1.233573    -0.000000    
-0.116677    1.686225    -1.505926    -5.946422    -0.581193    175.719666    -0.102376    -8.475905    -0.694544    0.460689    16.735868    -0.790524    5.796716    -30.420843    2.779058    5.839748    -23.435596    2.155155    32.706768    -0.489830    -1.904453    52.788033    -17.402803    -8.013246    -2.265621    -4.230973    -28.202448    -5.390414    -20.280500    -9.582911    -25.982870    -13.534243    13.975286    -53.167488    -46.145523    9.597088    -7.592114    6.831022    48.255558    -12.815431    -3.833803    -8.823050    -9.111699    4.300781    -6.011588    0.000000    10.857302    -0.000001    -6.578382    21.287174    10.425425    -0.000000    2.955153    -0.000000    -5.337780    1.683080    3.074624    -0.000000    4.358315    -0.000000    1.481278    22.494215    2.282816    -0.000000    0.912231    0.000000    
-0.117539    1.687339    -1.506777    -6.034633    -0.571071    175.900330    -0.148494    -7.906564    -1.079378    0.714487    15.595815    -1.221867    5.840564    -30.134089    2.727125    5.580244    -22.715633    1.933747    31.931688    0.691056    0.295991    52.398335    -19.772625    -10.056688    -2.817719    -5.378560    -27.702789    -4.010638    -20.969934    -8.468178    -26.058798    -12.714655    11.768063    -49.816341    -50.247921    14.265332    -8.002753    7.261831    48.041447    -15.135008    -3.957903    -8.466076    -9.225821    4.542145    -6.751309    0.000000    10.386695    -0.000001    -7.218105    21.581278    10.963948    0.000000    3.233478    -0.000000    -5.426424    1.564758    2.654865    0.000000    4.472684    -0.000000    1.528132    22.921309    2.855868    0.000000    0.509621    0.000000    
-0.118278    1.688594    -1.507130    -6.077533    -0.585033    176.122971    -0.172708    -7.340305    -1.351544    1.034346    14.661112    -1.558706    5.714343    -30.181282    2.750554    5.270287    -22.108112    1.849558    31.518799    1.749033    2.362354    51.834064    -21.752159    -11.929717    -3.279992    -6.558342    -26.646029    -3.189993    -21.513487    -8.325191    -26.245260    -12.048776    9.387932    -46.554825    -53.526417    18.911346    -8.257294    7.727388    47.184204    -16.907549    -4.202373    -7.400205    -9.178223    4.729558    -7.431163    0.000000    9.914652    -0.000000    -7.780940    22.345633    11.360311    0.000000    3.563120    -0.000000    -5.573030    1.589249    1.977573    -0.000000    4.390981    0.000000    1.431908    23.380667    3.382591    -0.000000    0.044468    0.000000    
-0.118787    1.690078    -1.506887    -6.071632    -0.597489    176.418167    -0.182822    -6.821380    -1.538869    1.365259    14.091568    -1.814626    5.532957    -30.700178    2.851030    4.946810    -21.710392    1.855129    31.379040    2.616924    4.234107    51.217167    -23.354059    -13.531284    -3.620270    -7.742346    -25.156883    -3.154753    -21.938299    -8.979110    -26.350214    -11.601598    7.020635    -43.654152    -56.139271    23.213951    -8.486641    8.291054    45.978363    -18.238211    -4.360540    -5.998392    -9.179133    4.838797    -7.692413    -0.000000    9.448758    0.000000    -8.373860    23.262163    11.901546    -0.000000    3.916609    -0.000000    -5.773522    1.703739    1.068940    0.000000    4.166956    -0.000000    1.626004    23.502487    3.414343    -0.000000    -0.441013    0.000000    
